<svg t="1653288579960" class="icon" viewBox="0 0 1030 1024" version="1.1" xmlns="http://www.w3.org/2000/svg" p-id="3162"
     width="200" height="200">
    <path d="M1024.957542 808.22784c-0.36352 0-0.36352 0-0.36352 45.71648 0 45.71136 0.36352 45.71136 0.36352 45.71136H458.030182C437.673062 972.97408 371.015782 1023.7952 294.922342 1024c-77.75232 0-142.848-52.88448-162.96448-124.34432H0.235622s0.36352 0 0.36352-45.71136c0-45.71648 0-45.71648-0.36352-45.71648h131.72736c20.352-73.2928 86.97344-124.09856 163.03616-124.34432 76.06272 0.24576 142.68416 51.05152 163.03616 124.34432H1024.952422z m-808.59136 45.71648c1.87392 43.42272 38.59456 77.1072 82.0224 75.23328 40.80128-1.76128 73.472-34.432 75.23328-75.23328-1.87392-43.42784-38.59456-77.1072-82.0224-75.2384-40.79616 1.76128-73.472 34.43712-75.23328 75.2384zM1030.077542 466.2784h-5.12c-0.36352 0-0.36352 0-0.36352 45.71648s0 45.71648 0.36352 45.71648h-69.5552c-20.352 73.28768-86.97344 124.09856-163.03616 124.3392-77.824 0-142.91968-52.87936-163.03616-124.3392H0.235622c-0.68608 0 0.36352-20.46976 0.36352-45.71648s0-45.71648-0.36352-45.71648H629.330022c20.35712-73.3184 87.01952-124.12928 163.10784-124.3392 76.03712 0.27136 142.6176 51.072 162.96448 124.3392h74.6752zM713.738342 512c-0.04096 43.4688 35.15904 78.73536 78.62784 78.77632 43.4688 0.04096 78.73536-35.16416 78.77632-78.62784 0.03584-43.4688-35.16416-78.73536-78.63296-78.77632h-0.14336c-43.37664 0-78.62784 35.25632-78.62784 78.62784zM481.505382 0c76.06784 0.24064 142.68928 51.0464 163.03616 124.34432h380.416c-0.36352 0-0.36352 0-0.36352 45.71136 0 45.71648 0 45.71648 0.36352 45.71648h-380.416c-20.352 73.2928-86.96832 124.09856-163.03104 124.34432-77.824 0-142.9248-52.88448-163.03616-124.34432H0.230502c-0.68608 0 0.36352 0 0.36352-45.71648 0-45.71136-0.36352-45.71136 0.3328-45.71136h317.5424C338.836582 51.02592 405.493862 0.2048 481.587302 0h-0.0768zM402.877542 170.05568c1.87392 43.42784 38.59968 77.1072 82.0224 75.2384 40.80128-1.76128 73.472-34.43712 75.2384-75.2384-1.87392-43.42272-38.59968-77.1072-82.0224-75.23328-40.80128 1.75616-73.472 34.432-75.2384 75.23328z"
          p-id="3163" fill="#666"></path>
</svg>
