<svg width="14" height="14" viewBox="0 0 14 14" fill="none" xmlns="http://www.w3.org/2000/svg" class="plus-icon">
    <path fill-rule="evenodd" clip-rule="evenodd"
          d="M7.01843 2.33325C7.34059 2.33367 7.60142 2.59518 7.60099 2.91735L7.59029 11.084C7.58987 11.4062 7.32836 11.667 7.00619 11.6666C6.68403 11.6662 6.4232 11.4047 6.42362 11.0825L6.43433 2.91582C6.43475 2.59365 6.69626 2.33283 7.01843 2.33325Z"
          fill="white"></path>
    <path fill-rule="evenodd" clip-rule="evenodd"
          d="M2.33331 6.99992C2.33331 6.67775 2.59448 6.41658 2.91665 6.41658H11.0833C11.4055 6.41658 11.6666 6.67775 11.6666 6.99992C11.6666 7.32208 11.4055 7.58325 11.0833 7.58325H2.91665C2.59448 7.58325 2.33331 7.32208 2.33331 6.99992Z"
          fill="white"></path>
</svg>
